<svg width="121" height="25" viewBox="0 0 121 25" fill="none" xmlns="http://www.w3.org/2000/svg">
<path d="M16.0969 24.2797L12.4009 20.5836C11.4968 20.8318 10.575 20.9559 9.63545 20.9559C7.91594 20.9559 6.3471 20.5571 4.92894 19.7593C3.51078 18.9439 2.38512 17.8182 1.55195 16.3823C0.736506 14.9287 0.328785 13.2979 0.328785 11.4897C0.328785 9.68154 0.736506 8.05952 1.55195 6.62364C2.38512 5.17003 3.51078 4.04436 4.92894 3.24665C6.3471 2.43121 7.91594 2.02349 9.63545 2.02349C11.3727 2.02349 12.9504 2.43121 14.3686 3.24665C15.7867 4.04436 16.9035 5.16116 17.719 6.59705C18.5344 8.03293 18.9421 9.66382 18.9421 11.4897C18.9421 13.2624 18.5521 14.8578 17.7721 16.276C16.9922 17.6941 15.9197 18.8109 14.5547 19.6264L19.2346 24.2797H16.0969ZM2.8017 11.4897C2.8017 12.961 3.0942 14.2551 3.67919 15.3719C4.2819 16.4887 5.09734 17.3485 6.12551 17.9512C7.1714 18.5539 8.34138 18.8553 9.63545 18.8553C10.9295 18.8553 12.0906 18.5539 13.1188 17.9512C14.1647 17.3485 14.9801 16.4887 15.5651 15.3719C16.1678 14.2551 16.4692 12.961 16.4692 11.4897C16.4692 10.0006 16.1678 8.70656 15.5651 7.60749C14.9801 6.49069 14.1736 5.63093 13.1454 5.02821C12.1172 4.42549 10.9473 4.12413 9.63545 4.12413C8.32366 4.12413 7.15368 4.42549 6.12551 5.02821C5.09734 5.63093 4.2819 6.49069 3.67919 7.60749C3.0942 8.70656 2.8017 10.0006 2.8017 11.4897ZM35.1114 6.19819V20.7698H32.6917V18.6159C32.2308 19.3605 31.5837 19.9455 30.7506 20.3709C29.9351 20.7786 29.0311 20.9825 28.0384 20.9825C26.9038 20.9825 25.8845 20.752 24.9804 20.2911C24.0764 19.8125 23.3584 19.1034 22.8266 18.1639C22.3125 17.2244 22.0555 16.081 22.0555 14.7337V6.19819H24.4486V14.4147C24.4486 15.8505 24.812 16.9585 25.5388 17.7385C26.2657 18.5007 27.2584 18.8819 28.517 18.8819C29.811 18.8819 30.8304 18.483 31.5749 17.6853C32.3194 16.8876 32.6917 15.7264 32.6917 14.2019V6.19819H35.1114ZM40.4468 3.83164C39.9859 3.83164 39.5959 3.6721 39.2768 3.35301C38.9577 3.03392 38.7981 2.64393 38.7981 2.18303C38.7981 1.72213 38.9577 1.33213 39.2768 1.01305C39.5959 0.693961 39.9859 0.534419 40.4468 0.534419C40.8899 0.534419 41.2622 0.693961 41.5636 1.01305C41.8826 1.33213 42.0422 1.72213 42.0422 2.18303C42.0422 2.64393 41.8826 3.03392 41.5636 3.35301C41.2622 3.6721 40.8899 3.83164 40.4468 3.83164ZM41.6167 6.19819V20.7698H39.197V6.19819H41.6167ZM47.5489 18.7755H54.7018V20.7698H44.7835V18.7755L51.8566 8.16589H44.8367V6.19819H54.6486V8.16589L47.5489 18.7755Z" fill="#3B3B3B"/>
<path d="M71.8813 7.60749C71.3672 6.52614 70.6227 5.69297 69.6477 5.10798C68.6727 4.50526 67.5382 4.20391 66.2441 4.20391C64.95 4.20391 63.78 4.50526 62.7342 5.10798C61.706 5.69297 60.8905 6.54387 60.2878 7.66067C59.7028 8.75974 59.4103 10.0361 59.4103 11.4897C59.4103 12.9433 59.7028 14.2197 60.2878 15.3187C60.8905 16.4178 61.706 17.2687 62.7342 17.8714C63.78 18.4564 64.95 18.7489 66.2441 18.7489C68.0522 18.7489 69.5413 18.2082 70.7113 17.1269C71.8813 16.0455 72.5638 14.5831 72.7588 12.7394H65.3666V10.7718H75.338V12.6331C75.1962 14.1576 74.7176 15.558 73.9022 16.8344C73.0867 18.093 72.0142 19.0946 70.6847 19.8391C69.3552 20.5659 67.875 20.9293 66.2441 20.9293C64.5246 20.9293 62.9557 20.5305 61.5376 19.7327C60.1194 18.9173 58.9938 17.7916 58.1606 16.3558C57.3451 14.9199 56.9374 13.2979 56.9374 11.4897C56.9374 9.68154 57.3451 8.05952 58.1606 6.62364C58.9938 5.17003 60.1194 4.04436 61.5376 3.24665C62.9557 2.43121 64.5246 2.02349 66.2441 2.02349C68.2118 2.02349 69.949 2.51098 71.4558 3.48596C72.9804 4.46095 74.0883 5.83479 74.7796 7.60749H71.8813ZM80.9571 8.56474C81.3826 7.73158 81.9853 7.08454 82.7653 6.62364C83.563 6.16274 84.5291 5.93229 85.6637 5.93229V8.43179H85.0255C82.3133 8.43179 80.9571 9.90313 80.9571 12.8458V20.7698H78.5374V6.19819H80.9571V8.56474ZM87.5528 13.4308C87.5528 11.9417 87.8542 10.6388 88.4569 9.522C89.0596 8.38747 89.8839 7.50999 90.9298 6.88954C91.9934 6.2691 93.1723 5.95888 94.4664 5.95888C95.7427 5.95888 96.8506 6.23364 97.7902 6.78318C98.7297 7.33272 99.4299 8.02407 99.8908 8.85724V6.19819H102.337V20.7698H99.8908V18.0575C99.4122 18.9084 98.6942 19.6175 97.737 20.1848C96.7975 20.7343 95.6984 21.0091 94.4398 21.0091C93.1457 21.0091 91.9757 20.69 90.9298 20.0518C89.8839 19.4137 89.0596 18.5184 88.4569 17.3662C87.8542 16.2139 87.5528 14.9021 87.5528 13.4308ZM99.8908 13.4574C99.8908 12.3583 99.6692 11.4011 99.2261 10.5856C98.7829 9.77018 98.1802 9.14973 97.4179 8.72429C96.6734 8.28111 95.8491 8.05953 94.945 8.05953C94.0409 8.05953 93.2166 8.27225 92.4721 8.6977C91.7275 9.12314 91.1337 9.74359 90.6905 10.559C90.2473 11.3745 90.0257 12.3317 90.0257 13.4308C90.0257 14.5476 90.2473 15.5226 90.6905 16.3558C91.1337 17.1712 91.7275 17.8005 92.4721 18.2437C93.2166 18.6691 94.0409 18.8819 94.945 18.8819C95.8491 18.8819 96.6734 18.6691 97.4179 18.2437C98.1802 17.8005 98.7829 17.1712 99.2261 16.3558C99.6692 15.5226 99.8908 14.5565 99.8908 13.4574ZM105.522 13.4308C105.522 11.9417 105.824 10.6388 106.426 9.522C107.029 8.38747 107.853 7.50999 108.899 6.88954C109.963 6.2691 111.151 5.95888 112.462 5.95888C113.597 5.95888 114.652 6.22478 115.627 6.75659C116.602 7.27067 117.346 7.95316 117.86 8.80406V1.09282H120.306V20.7698H117.86V18.031C117.382 18.8996 116.672 19.6175 115.733 20.1848C114.793 20.7343 113.694 21.0091 112.436 21.0091C111.142 21.0091 109.963 20.69 108.899 20.0518C107.853 19.4137 107.029 18.5184 106.426 17.3662C105.824 16.2139 105.522 14.9021 105.522 13.4308ZM117.86 13.4574C117.86 12.3583 117.639 11.4011 117.195 10.5856C116.752 9.77018 116.15 9.14973 115.387 8.72429C114.643 8.28111 113.818 8.05953 112.914 8.05953C112.01 8.05953 111.186 8.27225 110.441 8.6977C109.697 9.12314 109.103 9.74359 108.66 10.559C108.217 11.3745 107.995 12.3317 107.995 13.4308C107.995 14.5476 108.217 15.5226 108.66 16.3558C109.103 17.1712 109.697 17.8005 110.441 18.2437C111.186 18.6691 112.01 18.8819 112.914 18.8819C113.818 18.8819 114.643 18.6691 115.387 18.2437C116.15 17.8005 116.752 17.1712 117.195 16.3558C117.639 15.5226 117.86 14.5565 117.86 13.4574Z" fill="#FCC822"/>
</svg>
